<?xml version="1.0" encoding="utf-8"?>
<!-- Generator: Adobe Illustrator 25.4.1, SVG Export Plug-In . SVG Version: 6.00 Build 0)  -->
<svg version="1.1" id="Capa_1" xmlns="http://www.w3.org/2000/svg" xmlns:xlink="http://www.w3.org/1999/xlink" x="0px" y="0px"
	 viewBox="0 0 1080 1080" style="enable-background:new 0 0 1080 1080;" xml:space="preserve">
<style type="text/css">
	.st0{fill:#FF7866;}
	.st1{clip-path:url(#SVGID_00000111163867906873544690000009276261703709856444_);}
	.st2{fill:#1C150E;}
	.st3{fill:#F2D3CE;}
	.st4{fill:#FFF3F2;}
	.st5{fill:#E3B2AA;}
	.st6{fill:none;stroke:#C4796D;stroke-width:5.4199;stroke-miterlimit:12;}
	.st7{fill:url(#SvgjsPath2947_00000114783569433715327830000001703776442074199975_);}
	.st8{fill:#1D282E;}
	.st9{fill:#2D373D;}
	.st10{fill:#101A1F;}
	.st11{display:none;}
	.st12{display:inline;}
	.st13{fill:#F2D3CE;stroke:#C4796D;stroke-width:5.4821;stroke-miterlimit:12;}
	.st14{fill:#C4796D;}
	.st15{fill:#EAC2BC;}
	.st16{fill:none;stroke:#C4796D;stroke-width:5.4821;stroke-miterlimit:12;}
	.st17{fill:url(#SvgjsPath5300_00000008832447653519689230000014889242990309486502_);}
	.st18{fill:url(#SvgjsPath5007_00000170279774960527741170000003762683983434989701_);}
	.st19{fill:#7B5C33;stroke:#4D3009;stroke-width:1.8274;stroke-miterlimit:12;}
	.st20{fill:#896D47;}
	.st21{opacity:0.9;enable-background:new    ;}
	.st22{fill:none;stroke:#4D3009;stroke-width:2.7411;stroke-miterlimit:12;}
	.st23{opacity:0.5;fill:#FFFFFF;enable-background:new    ;}
	.st24{opacity:0.8;fill:#FFFFFF;enable-background:new    ;}
	.st25{fill:url(#SvgjsPath5033_00000175312021930273127820000003198357841375482285_);}
	.st26{fill:url(#SvgjsPath5038_00000091715495668403982960000012456242746577046662_);}
	.st27{fill:url(#SvgjsPath5015_00000157307322865019993520000003970895631658575520_);}
	.st28{fill:url(#SvgjsPath5054_00000106117373982764914240000002022663292903686806_);}
	.st29{fill:url(#SvgjsPath5059_00000025435468001366273040000005208435393153722293_);}
	.st30{fill:url(#SvgjsPath2769_00000088839717201812752880000011260010743740962181_);}
	.st31{fill:url(#SvgjsPath2773_00000170958577761840355890000006400412134141690259_);}
	.st32{fill:#2A232B;}
	.st33{opacity:0.1;fill:#3B3128;enable-background:new    ;}
	.st34{fill:#3B3128;}
	.st35{fill:#2C2219;}
	.st36{fill:#433931;}
	.st37{fill:#0D0905;}
	.st38{fill:#26120B;}
</style>
<g>
	<path d="M532.1,1048.9c-67.3,0-132.6-13.2-194-39.2c-59.4-25.1-112.7-61-158.4-106.8C133.9,857.1,98,803.8,72.8,744.5
		c-26-61.5-39.2-126.7-39.2-194c0-67.3,13.2-132.6,39.2-194c25.1-59.4,61-112.7,106.8-158.4c45.8-45.8,99.1-81.7,158.4-106.8
		c61.5-26,126.7-39.2,194-39.2s132.6,13.2,194,39.2c59.4,25.1,112.7,61,158.4,106.8s81.7,99.1,106.8,158.4
		c26,61.5,39.2,126.7,39.2,194c0,67.3-13.2,132.6-39.2,194c-25.1,59.4-61,112.7-106.8,158.4c-45.8,45.8-99.1,81.7-158.4,106.8
		C664.7,1035.7,599.4,1048.9,532.1,1048.9z"/>
	<path class="st0" d="M532.1,69.3c265.7,0,481.1,215.4,481.1,481.1s-215.4,481.1-481.1,481.1S51,816.2,51,550.5
		S266.4,69.3,532.1,69.3 M532.1,34.7c-69.6,0-137.2,13.6-200.8,40.5c-61.4,26-116.6,63.2-163.9,110.5
		c-47.4,47.4-84.5,102.5-110.5,163.9C30,413.3,16.4,480.8,16.4,550.5S30,687.6,56.9,751.2c26,61.4,63.2,116.6,110.5,163.9
		c47.4,47.4,102.5,84.5,163.9,110.5c63.6,26.9,131.2,40.5,200.8,40.5s137.2-13.6,200.8-40.5c61.4-26,116.6-63.2,163.9-110.5
		c47.4-47.4,84.5-102.5,110.5-163.9c26.9-63.6,40.5-131.2,40.5-200.8s-13.6-137.2-40.5-200.8c-26-61.4-63.2-116.6-110.5-163.9
		c-47.4-47.4-102.5-84.5-163.9-110.5C669.3,48.4,601.7,34.7,532.1,34.7L532.1,34.7z"/>
</g>
<g>
	<defs>
		<circle id="SVGID_1_" cx="532.1" cy="522.5" r="509"/>
	</defs>
	<clipPath id="SVGID_00000181801138570156765080000016761291785870087052_">
		<use xlink:href="#SVGID_1_"  style="overflow:visible;"/>
	</clipPath>
	<g id="svga-group-wrapper" style="clip-path:url(#SVGID_00000181801138570156765080000016761291785870087052_);">
		<g id="svga-group-backs-single">
		</g>
		<g id="svga-group-humanwrap-move" transform="matrix(1,0,0,1,0,0)">
			<g id="svga-group-humanwrap" transform="matrix(1,0,0,1,0,0)">
				<g id="svga-group-hair-back-move" transform="matrix(1,0,0,1,0,0)">
					<g id="svga-group-hair-back" transform="matrix(1,0,0,1,0,0)">
						<path id="SvgjsPath5219" class="st2" d="M753.6,613.8c-3,117.4-19.3,376.3-213.7,374.9c-293.8-2-222.8-254-225.7-374.9
							c-4.2-174.2,98.4-315.5,219.7-315.5C655.2,298.3,758.1,439.6,753.6,613.8z"/>
					</g>
				</g>
				<g id="svga-group-humanbody-single">
					<path id="SvgjsPath2777" class="st3" d="M864.4,942.7c-22-36.3-49.2-42.8-71.7-49.8c-23.1-7.2-70.7-11.4-96.7-16.4
						c-25.1-4.9-84.6-20.7-85.3-48.2c-0.7-28.8,15.7-143.2,15.7-143.2H437.4c0,0,16.4,114.4,15.7,143.2
						c-0.7,27.5-60.2,43.3-85.3,48.2c-26,5.1-73.6,9.2-96.7,16.4c-22.5,7-49.8,13.5-71.8,49.8c-13.3,22-22,57.6-22,96.9h709
						C886.4,1000.3,877.8,964.7,864.4,942.7z"/>
					<path id="SvgjsPath2778" class="st4" d="M610.7,828.3c9.1,39,66.4,48.9,96.1,54.7c80.1,15.6,123.4,18.3,154.6,69.8
						c10.6,17.6,20,56.7,21.8,86.3c6.7,1,1.9-62.3-18.8-96.4c-35.6-58.8-106.3-54.1-168.4-66.2C671,871.6,611.4,855.8,610.7,828.3
						L610.7,828.3z M454,828.3c-0.7,27.5-60.2,43.3-85.3,48.2c-62.1,12.1-132.8,7.4-168.4,66.2c-20.7,34.2-25.5,97.5-18.8,96.4
						c1.8-29.6,11.2-68.7,21.8-86.3c31.2-51.5,74.5-54.2,154.6-69.8C387.6,877.2,444.9,867.3,454,828.3L454,828.3z"/>
					<path id="SvgjsPath2779" class="st5" d="M354.1,905.7c0,0,104.7,1.1,122.3,6.7c8.5,2.7,30.6,20.1,30.6,20.1s-24-11.3-31.6-13.4
						C457.5,914.3,354.1,905.7,354.1,905.7z M531.6,943.2c7.5-0.1,28.8-13.6,28.8-13.6s-20.4,7.4-26.8,7.7
						c-5.4,0.3-23.3-4.4-23.3-4.4S525.5,943.3,531.6,943.2z M594.5,917.3c24.7-6.5,108.9-11.5,108.9-11.5s-87-1.8-111.5,6.2
						c-8.2,2.7-27.6,18.4-27.6,18.4S586.4,919.4,594.5,917.3z"/>
					<path id="SvgjsPath2780" class="st6" d="M864.4,942.7C828.8,883.9,758,888.6,696,876.5c-25.1-4.9-84.6-20.7-85.3-48.2
						c-0.7-28.8,15.7-143.2,15.7-143.2H437.4c0,0,16.4,114.4,15.7,143.2c-0.7,27.5-60.2,43.3-85.3,48.2c-26,5.1-73.6,9.2-96.7,16.4
						c-22.5,7-49.8,13.5-71.8,49.8c-13.3,22-22,57.6-22,96.9h709C886.4,1000.3,877.8,964.7,864.4,942.7z"/>
				</g>
				<g id="svga-group-chinshadow-single">
					
						<linearGradient id="SvgjsPath2947_00000160880370486989533750000011383425435208295299_" gradientUnits="userSpaceOnUse" x1="264.637" y1="800.747" x2="264.637" y2="843.2872" gradientTransform="matrix(3 0 0 -3 -262 3244)">
						<stop  offset="0" style="stop-color:#E3B2AA;stop-opacity:0.8"/>
						<stop  offset="0.7" style="stop-color:#C4796D"/>
					</linearGradient>
					<path id="SvgjsPath2947" style="fill:url(#SvgjsPath2947_00000160880370486989533750000011383425435208295299_);" d="
						M484.1,830.9c19.4,9.1,76.9,8.7,96.5,0c9.1-4,18.7-10.5,28.3-18.6c2.6-37.7,12.2-108.6,14.6-126.1c-4.1-0.4-8.2-0.8-12.5-1.1
						H454.2c-4.8,0.4-9.4,0.8-13.9,1.2c2.4,17.5,11.8,86.6,14.5,124.6C464.8,819.5,474.8,826.5,484.1,830.9z"/>
				</g>
				<g id="svga-group-clothes-single">
					<path id="SvgjsPath5229" class="st8" d="M326,1045.1c-93.3,0-144.5-0.9-152.3-2.6l0-0.4c-6.2-101.9,50.6-156,173.6-165.3
						c45.5,29.6,118.7,44.6,217.2,44.6c104.5,0,206.8-17.4,245.9-24.8c56.3,30.6,77.3,69.5,77.4,143.1
						C873.2,1040.8,532.7,1045.1,326,1045.1C326,1045.1,326,1045.1,326,1045.1z"/>
					<path id="SvgjsPath5230" class="st9" d="M887.7,1039.6c0,0,0.4-112.3-108-134.3c16.4-2.6,20.9-7,30.6-8.8
						C866.6,927.2,887.6,966,887.7,1039.6z M711.8,911.7c-103.2,12.5-276.3,22.3-364.5-35c-108.5,8.2-180.1,51.6-173.6,165.7
						c0.5,0.1,1.1,0.2,1.8,0.3c4.6-65.8,24.9-88.6,60.2-113.7c12.5,16.5,19.8,48.5,19.8,71.6c0-32.9,0.6-47.6-3.7-80.5
						c33.4-19.6,70.2-23.7,102.5-29.1C461.7,945.3,637,939.7,711.8,911.7z"/>
					<path id="SvgjsPath5231" class="st10" d="M304.8,886.5c100.4,72.1,312.1,67.3,432.3,50.5C767.1,931.7,455.3,999,304.8,886.5z"
						/>
					<path id="SvgjsPath5232" d="M810.3,896.1c-126.3,24.1-357.5,48.6-463.1-19.8c-117.5,5.7-180.8,52.9-174,165.7
						c0,0.2,0,0.5,0,0.7c26.5,6.8,706.8,3.7,718.2,2.3C891.5,975.6,873.4,919.3,810.3,896.1z M173.7,1042.1
						c0-59.6,14.4-108.1,59.5-133.4c5.9,8.7,15.4,35.5,16.6,37.9c0,0-6.6-31-12-40.8c14-7.8,34.8-12.8,66.7-19.9
						c91.5,72.5,341.3,78.6,478.2,40.2c0,0-0.1,0-0.2,0c-112.4,32-378.1,29.4-476.6-40.5c5.7-1.8,33.7-6.2,40.6-7.2
						c153,100.6,459.4,20.6,463,20.6c54.8,26.9,75.4,70.8,77.6,140.5C633.8,1039.6,310.8,1045.3,173.7,1042.1z"/>
				</g>
				<g id="svga-group-head" transform="matrix(1,0,0,1,0,0)">
					<g id="svga-group-ears-left-move" transform="matrix(1,0,0,1,0,0)" class="st11">
						<g id="svga-group-ears-left" transform="matrix(1,0,0,1,0,0)" class="st12">
							<path id="SvgjsPath3992" class="st13" d="M338.7,522.7c-5-8.5-20.6-29.2-36.5-24.1c-10,3.2-12,13.8-13.7,23.1
								c-2.1,12.4,1.7,36.9,5.1,45.7c3.2,8.5,12.9,24.9,19.2,31.2c7.8,7.7,17.5,32.1,19,34.7c2.4,4,5.6,10,15.1,9.3
								c10.4-0.8,16.8-6.4,21.4-7.3C379.8,632.8,351.8,544.7,338.7,522.7z"/>
							<path id="SvgjsPath3993" class="st14" d="M328.4,574c-0.5-2,0-5.4,0.5-8.6c0.5-3,0.9-5.8,0.6-7.8c-1-7.4-6.5-21.5-10.1-29.2
								c-4.1-8.8-10.8-19.9-19.2-22.7c-3.5-1.2-5.8,0.2-7.1,1.7c-1,1.1-1.2,2.3-0.9,2.4c0.3,0.1,1-0.9,2.1-1.8
								c0.9-0.8,2.1-1.5,3.8-1.3c-0.7,3.7-4.3,23.7-2.7,37.4c1.2,10.7,5.8,18.8,6.5,20c0.1,1.3,0.3,2.5,0.5,3.7
								c3.4,15.7,18.2,33.5,23.3,39.3c0.9,1.1,1.9,1.7,2.2,1.5c0.2-0.3-0.3-1.3-1.3-2.4c-5.1-5.8-19.7-23.5-23-38.7
								c-3.5-16,8.5-39.8,11.1-44.9c1.4,2.4,2.5,4.6,3.4,6.5c0.7,1.5,1.5,3.2,2.3,5.1c-1.6,2.6-12.6,21.8-8.5,37.1
								c1.5,5.7,8.2,12.9,12.6,14.9c2.4,1.1,3.4,2.7,4.4,4.6c1.2,2.2,2.6,4.7,6.7,6.5c0.8,0.4,1.6,0.5,2.2,0.5c1.1,0,2-0.5,2.6-1
								c0.1,1,0.1,2.2,0,3.4c0,1.5,0.2,2.7,0.5,2.7c0.3,0,0.7-1.1,0.8-2.6c0.1-1.8,0-4.1-0.3-5.1c-0.9-3.2-3.7-6.7-6.6-10.5
								C332.2,580.9,329.2,577.1,328.4,574z M301.9,560.1c-8-24.6,2.4-45.8,4.2-49.2c3.1,2.8,5.8,6.6,8.1,10.3
								C312.6,524.1,302.3,543.5,301.9,560.1z M336.3,596.1c-3.7-1.6-4.9-3.8-6.1-6c-1.1-1.9-2.2-3.9-5-5.2c-0.6-0.3-1.3-0.7-2-1.2
								c-9.1-21.6,1-31,3.5-33c0.8,2.6,1.3,5.1,1.6,7c0.2,1.8-0.2,4.6-0.6,7.4c-0.5,3.4-1,6.9-0.5,9.2c0.8,3.4,3.9,7.3,6.9,11.2
								c2.6,3.4,5.4,6.9,6.3,9.8C340,595.8,338.7,597.2,336.3,596.1z"/>
						</g>
					</g>
					<g id="svga-group-ears-right-move" transform="matrix(1,0,0,1,0,0)" class="st11">
						<g id="svga-group-ears-right" transform="matrix(1,0,0,1,0,0)" class="st12">
							<path id="SvgjsPath3994" class="st13" d="M725.1,522.7c5-8.5,20.6-29.2,36.5-24.1c10.1,3.2,12,13.8,13.7,23.1
								c2.1,12.4-1.7,36.9-5.1,45.7c-3.2,8.5-12.9,24.9-19.2,31.2c-7.8,7.7-17.5,32.1-19,34.7c-2.4,4-5.6,10-15.1,9.3
								c-10.4-0.8-16.8-6.4-21.4-7.3C684,632.8,712,544.7,725.1,522.7z"/>
							<path id="SvgjsPath3995" class="st14" d="M728.7,584.6c-2.9,3.8-5.7,7.3-6.6,10.5c-0.3,1.1-0.3,3.3-0.3,5.1
								c0,1.5,0.4,2.6,0.8,2.6s0.5-1.2,0.5-2.7c0-1.1,0-2.4,0-3.4c0.6,0.5,1.5,1,2.6,1c0.7,0,1.4-0.1,2.2-0.5
								c4.1-1.8,5.5-4.3,6.7-6.5c1.1-1.9,2-3.5,4.4-4.6c4.4-2,11.1-9.3,12.6-14.9c4-15.3-7-34.5-8.5-37.1c0.8-1.9,1.6-3.6,2.3-5.1
								c0.9-1.9,2-4.2,3.4-6.5c2.7,5,14.6,28.8,11.1,44.9c-3.3,15.1-17.9,32.9-23,38.7c-0.9,1.1-1.5,2.1-1.3,2.4
								c0.2,0.3,1.2-0.4,2.2-1.5c5.1-5.8,19.9-23.7,23.3-39.3c0.3-1.2,0.4-2.4,0.5-3.7c0.7-1.2,5.3-9.2,6.5-20
								c1.5-13.7-2-33.7-2.7-37.4c1.7-0.1,3,0.5,3.8,1.3c1,1,1.8,2,2.1,1.8c0.3-0.1,0.1-1.4-0.9-2.4c-1.3-1.4-3.6-2.8-7.1-1.7
								c-8.4,2.9-15.1,13.9-19.2,22.7c-3.6,7.6-9.1,21.8-10.1,29.2c-0.3,2,0.2,4.8,0.6,7.8c0.5,3.3,1,6.6,0.5,8.6
								C734.6,577.1,731.6,580.9,728.7,584.6z M749.6,521.2c2.2-3.7,5-7.5,8.1-10.3c1.8,3.4,12.1,24.6,4.2,49.2
								C761.5,543.5,751.2,524.1,749.6,521.2z M723.4,595.2c0.9-2.9,3.6-6.4,6.3-9.8c3-3.8,6.1-7.8,6.9-11.2c0.5-2.3,0-5.8-0.5-9.2
								c-0.4-2.7-0.8-5.6-0.6-7.4c0.2-1.9,0.8-4.4,1.6-7c2.5,1.9,12.6,11.4,3.5,33c-0.7,0.5-1.4,0.9-2,1.2c-2.8,1.3-3.9,3.3-5,5.2
								c-1.2,2.1-2.4,4.3-6.1,6C725.1,597.2,723.8,595.8,723.4,595.2z"/>
						</g>
					</g>
					<g id="svga-group-faceshape-wrap" transform="matrix(1,0,0,1,0,0)">
						<g id="svga-group-faceshape-single">
							<path id="SvgjsPath2944" class="st3" d="M693.2,672.8c-18.3,36.8-73.3,102.3-112.6,119.7c-19.6,8.7-77.1,9.1-96.5,0
								c-38.9-18.2-94.2-83-112.6-119.7c-20.5-40.9-54.3-174.7-54.3-174.9c-4.8-18-7.3-36.8-7.3-56.2
								c-0.2-122.3,99.2-221.6,222.1-221.8c122.9-0.2,222.6,98.8,222.8,221.1c0,19.4-2.4,38.3-7.1,56.2
								C747.7,497.5,713.7,631.7,693.2,672.8z"/>
							<path id="SvgjsPath2945" class="st15" d="M569.5,223c98.7,22.8,172.1,110.9,172,216c0,19.4-2.6,38.3-7.3,56.2
								c0,0.2-31.5,134-51.6,174.9c-17.8,36-72,98.8-109.9,117c-7.9,3.8-31.8,5.6-40.2,5.6c-8.4,0-32.3-1.8-40.2-5.6
								c-37.9-18.2-92.1-81-109.9-117c-20.2-40.9-51.6-174.7-51.6-174.9c-4.8-17.9-7.3-36.8-7.3-56.2c-0.2-105.2,73.3-193.2,172-216
								C390,240.6,309.8,331.8,309.9,441.7c0,19.4,2.6,38.3,7.3,56.2c0,0.2,33.7,134,54.3,174.9c18.5,36.7,73.9,101.1,112.6,119.7
								c9.7,4.7,34,6.7,47.3,6.7c13.3,0,39.4-2,49.1-6.7c38.7-18.6,94.1-83,112.6-119.7c20.6-40.9,54.3-174.7,54.3-174.9
								c4.8-18,7.3-36.8,7.3-56.2C755,331.8,674.8,240.6,569.5,223z"/>
							<path id="SvgjsPath2946" class="st16" d="M693.2,672.8c-18.3,36.8-73.3,102.3-112.6,119.7c-19.6,8.7-77.1,9.1-96.5,0
								c-38.9-18.2-94.2-83-112.6-119.7c-20.5-40.9-54.3-174.7-54.3-174.9c-4.8-18-7.3-36.8-7.3-56.2
								c-0.2-122.3,99.2-221.6,222.1-221.8c122.9-0.2,222.6,98.8,222.8,221.1c0,19.4-2.4,38.3-7.1,56.2
								C747.7,497.5,713.7,631.7,693.2,672.8z"/>
						</g>
					</g>
					<g id="svga-group-mouth-single-move" transform="matrix(1,0,0,1,0,0)">
						<g id="svga-group-mouth-single" transform="matrix(1,0,0,1,0,0)">
							
								<linearGradient id="SvgjsPath5300_00000158729779090436904660000009363647849817593532_" gradientUnits="userSpaceOnUse" x1="265.1871" y1="836.4053" x2="265.1871" y2="840.0601" gradientTransform="matrix(3 0 0 -3 -262 3244)">
								<stop  offset="0.1" style="stop-color:#EAC2BC"/>
								<stop  offset="1" style="stop-color:#E3B2AA"/>
							</linearGradient>
							<path id="SvgjsPath5300" style="fill:url(#SvgjsPath5300_00000158729779090436904660000009363647849817593532_);" d="
								M534.1,733.5c-11.8,0-13.5-9.8-13.5-9.8l26-0.7C546.6,723,544.5,733.5,534.1,733.5z"/>
							<path id="SvgjsPath5304" class="st14" d="M532,725.3c-6.1,0-10.7-0.6-11.1-0.7c-0.5-0.1-0.8-0.5-0.8-1c0.1-0.5,0.5-0.8,1-0.8
								c0.1,0,13.5,1.8,24.7-0.7c0.5-0.1,1,0.2,1.1,0.7c0.1,0.5-0.2,1-0.7,1.1C541.5,725,536.3,725.3,532,725.3z M532.6,706.1
								c-4.7,0-9.3-1.7-13.9-2.6c-5.1-1-10.3-0.1-15.4,0.4c-4.4,0.4-8.7,0.4-13.1-0.4c-2.1-0.4-5.1-0.6-6.9-1.8
								c-1.8-1.2-1.5-4.1,0.6-4.8c1.9-0.7,4.9,0.8,6.9,1.2c2.2,0.4,4.5,0.7,6.7,0.7c5,0.1,9.9-0.9,14.9-1.1
								c5.3-0.2,10.4,1.3,15.5,2.4c4.6,1,8.5,0.3,13-0.6c7.8-1.7,15.6-2.1,23.5-2.4c3.9-0.2,7.9-0.9,11.7-2.1c1.6-0.5,3.5-1.9,5.2-1
								c1.9,1.1,1.8,4-0.2,4.9c-6.5,3.1-13.8,3.6-20.9,3.9c-4.5,0.2-9,0.4-13.5,1.2C542,704.6,537.4,706.1,532.6,706.1z"/>
						</g>
					</g>
					<g id="svga-group-eyes-left-move" transform="matrix(1,0,0,1,0,0)">
						<g id="svga-group-eyes-left" transform="matrix(1,0,0,1,0,0)">
							<g id="svga-group-eyesback-left">
								
									<radialGradient id="SvgjsPath5007_00000173145711621996749070000007311459721352792992_" cx="232.0676" cy="901.5189" r="18.4919" gradientTransform="matrix(-2.7444 0.1437 -0.1569 -2.9958 1213.4194 3200.8301)" gradientUnits="userSpaceOnUse">
									<stop  offset="0" style="stop-color:#FFFFFF"/>
									<stop  offset="0.544" style="stop-color:#FCFDFD"/>
									<stop  offset="0.74" style="stop-color:#F5F7F8"/>
									<stop  offset="0.879" style="stop-color:#E9EEF1"/>
									<stop  offset="0.992" style="stop-color:#D8E2E7"/>
									<stop  offset="1" style="stop-color:#D7E1E6"/>
								</radialGradient>
								<path id="SvgjsPath5007" style="fill:url(#SvgjsPath5007_00000173145711621996749070000007311459721352792992_);" d="
									M388.5,522.7c4.5-4.3,33.2-9.8,49.8-7.6c26.3,3.5,47.5,26.6,47.5,26.6s-17.7,11.3-49.7,13
									C415,555.9,393.7,542.2,388.5,522.7z"/>
							</g>
							<g id="svga-group-eyesiriswrapper-left" transform="matrix(1,0,0,1,-1,0.25)">
								<g id="svga-group-eyesiriscontrol-left" transform="matrix(1,0,0,1,0,0)">
									<g id="svga-group-eyesiris-left" transform="matrix(1,0,0,1,0,0)">
										<path id="SvgjsPath5195" class="st19" d="M468.3,542.7c-4.5,16.5-21.5,26.3-38.1,21.7c-16.5-4.5-26.3-21.6-21.8-38.2
											c4.5-16.5,21.6-26.3,38.1-21.7C463.1,509,472.8,526.1,468.3,542.7z"/>
										<path id="SvgjsPath5196" class="st20" d="M467.6,536.4c-2.3,18.4-15.9,27.9-30.8,26.9c-13.8-0.9-26.1-11.1-27.2-28.6
											c4.8-1.4,11.1,0.9,16.6,0c0,0.2-0.1,0.4-0.1,0.6c-0.4,6.7,5,12.6,12.1,13.1c7.1,0.5,13.2-4.6,13.7-11.3
											c0-0.9,0-1.7-0.1-2.6C456.6,535.2,462.7,534.4,467.6,536.4z"/>
										<path id="SvgjsPath5197" class="st21" d="M442.9,524.1c-6.8-2-13.8,1.9-15.6,8.8c-1.8,6.8,2.3,13.9,9.2,15.8
											c6.8,2,13.8-1.9,15.6-8.7C453.8,533.1,449.7,526,442.9,524.1z"/>
										<path id="SvgjsPath5198" class="st22" d="M442.9,524.1c-6.8-2-13.8,1.9-15.6,8.8c-1.8,6.8,2.3,13.9,9.2,15.8
											c6.8,2,13.8-1.9,15.6-8.7C453.8,533.1,449.7,526,442.9,524.1z"/>
										<path id="SvgjsPath5199" class="st23" d="M423.7,553.4c-0.6,2.3-4.2,1.3-3.5-1c0.6-2.2,2.3-3.5,3.4-5.5
											c1.1-2.1,4.3-0.2,3.2,1.8C425.8,550.4,424.2,551.6,423.7,553.4L423.7,553.4z M429.3,549.8c-1,1.1-2.2,5.3-2.8,6.7
											c-0.9,2.2,2.7,3.1,3.5,1c0.3-0.7,1.3-4.5,1.9-5.1C433.4,550.6,430.8,548,429.3,549.8L429.3,549.8z M436.9,560.6
											c1.9-2.2,1.7-4.7,1.7-7.5c0-2.4-3.7-2.4-3.7,0c0,1.5,0.5,3.6-0.6,4.9C432.8,559.8,435.3,562.4,436.9,560.6L436.9,560.6z
											 M440.6,552.7c0,2.3,0.3,4.5,1,6.7c0.7,2.2,4.2,1.3,3.5-1c-0.6-1.9-0.8-3.7-0.8-5.7C444.2,550.3,440.6,550.3,440.6,552.7
											L440.6,552.7z"/>
										<path id="SvgjsPath5200" class="st24" d="M460.1,529.1c-3.6,2.2-9,0.2-12.1-4.3c-3.1-4.6-2.6-10,1-12.2
											c3.6-2.2,9-0.2,12.1,4.3C464.1,521.5,463.7,527,460.1,529.1z"/>
									</g>
								</g>
							</g>
							<g id="svga-group-eyesfront-left">
								<path id="SvgjsPath5032" class="st3" d="M369.1,537.4c0,50.5,29.5,91.4,65.8,91.4s65.8-40.9,65.8-91.4
									c0-50.5-29.5-91.4-65.8-91.4S369.1,487,369.1,537.4z M388.5,522.7c4.5-4.3,33.2-9.8,49.8-7.6c26.3,3.5,47.5,26.6,47.5,26.6
									s-17.7,11.3-49.7,13C415,555.9,393.7,542.2,388.5,522.7z"/>
								
									<radialGradient id="SvgjsPath5033_00000008147931111244646770000016523299661737698444_" cx="294.8201" cy="1107.9293" r="20.615" fx="311.4545" fy="1107.4833" gradientTransform="matrix(2.97 0.4233 -0.3255 2.2824 -65.1721 -2132.6592)" gradientUnits="userSpaceOnUse">
									<stop  offset="0" style="stop-color:#E3B2AA"/>
									<stop  offset="0.7" style="stop-color:#E3B2AA;stop-opacity:0.3"/>
									<stop  offset="1" style="stop-color:#F2D3CE;stop-opacity:0"/>
								</radialGradient>
								<path id="SvgjsPath5033" style="fill:url(#SvgjsPath5033_00000008147931111244646770000016523299661737698444_);" d="
									M438,568.8c34.4,8.1,67.4-5.9,73.8-31.3c6.4-25.4-16.4-52.6-50.8-60.7c-34.4-8.1-67.4,5.9-73.8,31.3
									C380.9,533.5,403.6,560.7,438,568.8z M388.5,522.7c4.5-4.3,33.2-9.8,49.8-7.6c26.3,3.5,47.5,26.6,47.5,26.6
									s-17.7,11.3-49.7,13C415,555.9,393.7,542.2,388.5,522.7z"/>
								
									<radialGradient id="SvgjsPath5038_00000183954748784974038910000010066976044614271114_" cx="227.7436" cy="879.6584" r="35.9507" gradientTransform="matrix(3.1008 0 0 -3.1008 -281.0278 3358.5979)" gradientUnits="userSpaceOnUse">
									<stop  offset="0.95" style="stop-color:#000000;stop-opacity:0"/>
									<stop  offset="1" style="stop-color:#000000;stop-opacity:0.3"/>
								</radialGradient>
								<path id="SvgjsPath5038" style="fill:url(#SvgjsPath5038_00000183954748784974038910000010066976044614271114_);" d="
									M388.5,522.7c4.5-4.3,33.2-9.8,49.8-7.6c26.3,3.5,47.5,26.6,47.5,26.6s-17.7,11.3-49.7,13
									C415,555.9,393.7,542.2,388.5,522.7z"/>
								<path id="SvgjsPath5042" class="st14" d="M486.5,521.6c-23.8-15.5-14.8-11.3-59.3-24.5c12.2,1.8,35,7.6,42.8,12.1
									C474.2,511.6,482.8,518.4,486.5,521.6z"/>
								<path id="SvgjsPath5043" d="M369.2,519.1c0,0,7.6,4.8,13.6,4.8c0.5,2.8,8.2,15.6,21.5,23.2c20.1,11.5,43.5,8,65.8,2.3
									c10.9-2.7,10.3-5.6,28.4-7.6c-14.2-5.7-12.7-9.1-32.5-19.8c9,1.7,21.1,8.5,21.1,8.5c-4.5-5.3-36.2-24.8-87.1-27.4
									c0,0,17,4,23.4,6.5c-29.4,4-37.4-0.4-39-1.6c1.3,1.1,4.3,4.5,11,6.8c-6.9,0.5-19.4-3.2-19.4-3.2s3.2,3,9.6,7.2
									C380.1,521.3,369.2,519.1,369.2,519.1z M388.5,523.1c4.5-4.2,33.2-9.4,49.8-7.3c26.3,3.3,47.5,25.7,47.5,25.7
									s-17.7,10.9-49.7,12.6C415,555.1,393.7,541.9,388.5,523.1z"/>
							</g>
						</g>
					</g>
					<g id="svga-group-eyes-right-move" transform="matrix(1,0,0,1,0,0)">
						<g id="svga-group-eyes-right" transform="matrix(1,0,0,1,0,0)">
							<g id="svga-group-eyesback-right">
								
									<radialGradient id="SvgjsPath5015_00000047035003965983595770000012255161487713837993_" cx="305.7464" cy="905.0532" r="18.4919" gradientTransform="matrix(2.7444 0.1437 0.1569 -2.9958 -351.418 3200.8301)" gradientUnits="userSpaceOnUse">
									<stop  offset="0" style="stop-color:#FFFFFF"/>
									<stop  offset="0.544" style="stop-color:#FCFDFD"/>
									<stop  offset="0.74" style="stop-color:#F5F7F8"/>
									<stop  offset="0.879" style="stop-color:#E9EEF1"/>
									<stop  offset="0.992" style="stop-color:#D8E2E7"/>
									<stop  offset="1" style="stop-color:#D7E1E6"/>
								</radialGradient>
								<path id="SvgjsPath5015" style="fill:url(#SvgjsPath5015_00000047035003965983595770000012255161487713837993_);" d="
									M676.3,522.7c-4.5-4.3-33.2-9.8-49.8-7.6c-26.3,3.5-47.5,26.6-47.5,26.6s17.7,11.3,49.7,13
									C649.8,555.9,671,542.2,676.3,522.7z"/>
							</g>
							<g id="svga-group-eyesiriswrapper-right" transform="matrix(1,0,0,1,1,0.25)">
								<g id="svga-group-eyesiriscontrol-right" transform="matrix(1,0,0,1,0,0)">
									<g id="svga-group-eyesiris-right" transform="matrix(1,0,0,1,0,0)">
										<path id="SvgjsPath5201" class="st19" d="M656.4,542.7c-4.5,16.5-21.5,26.3-38.1,21.7c-16.5-4.5-26.3-21.6-21.8-38.2
											c4.5-16.5,21.6-26.3,38.1-21.7C651.1,509,660.9,526.1,656.4,542.7z"/>
										<path id="SvgjsPath5202" class="st20" d="M655.6,536.4c-2.3,18.4-15.9,27.9-30.8,26.9c-13.8-0.9-26.1-11.1-27.2-28.6
											c4.8-1.4,11.1,0.9,16.6,0c0,0.2-0.1,0.4-0.1,0.6c-0.4,6.7,5,12.6,12.1,13.1c7.1,0.5,13.2-4.6,13.7-11.3
											c0-0.9,0-1.7-0.1-2.6C644.7,535.2,650.7,534.4,655.6,536.4z"/>
										<path id="SvgjsPath5203" class="st21" d="M630.9,524.1c-6.8-2-13.8,1.9-15.6,8.8c-1.8,6.8,2.3,13.9,9.2,15.8
											c6.8,2,13.8-1.9,15.6-8.7C641.9,533.1,637.7,526,630.9,524.1z"/>
										<path id="SvgjsPath5204" class="st22" d="M630.9,524.1c-6.8-2-13.8,1.9-15.6,8.8c-1.8,6.8,2.3,13.9,9.2,15.8
											c6.8,2,13.8-1.9,15.6-8.7C641.9,533.1,637.7,526,630.9,524.1z"/>
										<path id="SvgjsPath5205" class="st23" d="M611.7,553.4c-0.6,2.3-4.2,1.3-3.5-1c0.6-2.2,2.3-3.5,3.4-5.5
											c1.1-2.1,4.3-0.2,3.2,1.8C613.8,550.4,612.2,551.6,611.7,553.4L611.7,553.4z M617.3,549.8c-1,1.1-2.2,5.3-2.8,6.7
											c-0.9,2.2,2.7,3.1,3.5,1c0.3-0.7,1.3-4.5,1.9-5.1C621.4,550.6,618.9,548,617.3,549.8L617.3,549.8z M624.9,560.6
											c1.9-2.2,1.7-4.7,1.7-7.5c0-2.4-3.7-2.4-3.7,0c0,1.5,0.5,3.6-0.6,4.9C620.8,559.8,623.4,562.4,624.9,560.6L624.9,560.6z
											 M628.7,552.7c0,2.3,0.3,4.5,1,6.7c0.7,2.2,4.2,1.3,3.5-1c-0.6-1.9-0.8-3.7-0.8-5.7C632.3,550.3,628.6,550.3,628.7,552.7
											L628.7,552.7z"/>
										<path id="SvgjsPath5206" class="st24" d="M648.1,529.1c-3.6,2.2-9,0.2-12.1-4.3c-3.1-4.6-2.6-10,1-12.2
											c3.6-2.2,9-0.2,12.1,4.3C652.2,521.5,651.7,527,648.1,529.1z"/>
									</g>
								</g>
							</g>
							<g id="svga-group-eyesfront-right">
								<path id="SvgjsPath5053" class="st3" d="M629.8,446.1c-36.3,0-65.8,40.9-65.8,91.4c0,50.5,29.5,91.4,65.8,91.4
									s65.8-40.9,65.8-91.4C695.6,487,666.2,446.1,629.8,446.1z M628.7,554.7c-32.1-1.7-49.7-13-49.7-13s21.3-23.2,47.5-26.6
									c16.6-2.2,45.3,3.3,49.8,7.6C671,542.2,649.8,555.9,628.7,554.7z"/>
								
									<radialGradient id="SvgjsPath5054_00000172408509481486549100000016229360387120928430_" cx="227.9092" cy="1120.3389" r="20.6149" fx="244.5435" fy="1119.8928" gradientTransform="matrix(-2.97 0.4233 0.3255 2.2824 927.1721 -2132.6592)" gradientUnits="userSpaceOnUse">
									<stop  offset="0" style="stop-color:#E3B2AA"/>
									<stop  offset="0.7" style="stop-color:#E3B2AA;stop-opacity:0.3"/>
									<stop  offset="1" style="stop-color:#F2D3CE;stop-opacity:0"/>
								</radialGradient>
								<path id="SvgjsPath5054" style="fill:url(#SvgjsPath5054_00000172408509481486549100000016229360387120928430_);" d="
									M677.5,508.1c-6.4-25.4-39.4-39.4-73.8-31.3c-34.4,8.1-57.1,35.3-50.8,60.7c6.4,25.4,39.4,39.4,73.8,31.3
									C661.2,560.7,683.9,533.5,677.5,508.1z M628.7,554.7c-32.1-1.7-49.7-13-49.7-13s21.3-23.2,47.5-26.6
									c16.6-2.2,45.3,3.3,49.8,7.6C671,542.2,649.8,555.9,628.7,554.7z"/>
								
									<radialGradient id="SvgjsPath5059_00000161633544633449228110000005492085502802753454_" cx="162.3524" cy="879.6584" r="35.9495" gradientTransform="matrix(-3.1008 0 0 -3.1008 1143.0278 3358.5979)" gradientUnits="userSpaceOnUse">
									<stop  offset="0.95" style="stop-color:#000000;stop-opacity:0"/>
									<stop  offset="1" style="stop-color:#000000;stop-opacity:0.3"/>
								</radialGradient>
								<path id="SvgjsPath5059" style="fill:url(#SvgjsPath5059_00000161633544633449228110000005492085502802753454_);" d="
									M676.3,522.7c-4.5-4.3-33.2-9.8-49.8-7.6c-26.3,3.5-47.5,26.6-47.5,26.6s17.7,11.3,49.7,13
									C649.8,555.9,671,542.2,676.3,522.7z"/>
								<path id="SvgjsPath5063" class="st14" d="M578.3,521.6c23.8-15.5,14.8-11.3,59.3-24.5c-12.2,1.8-35,7.6-42.8,12.1
									C590.6,511.6,582,518.4,578.3,521.6z"/>
								<path id="SvgjsPath5064" d="M679.2,518.7c6.4-4.2,9.6-7.2,9.6-7.2s-12.6,3.7-19.4,3.2c6.6-2.2,9.7-5.7,11-6.8
									c-1.6,1.2-9.6,5.6-39,1.6c6.4-2.5,23.4-6.5,23.4-6.5c-50.8,2.6-82.6,22.1-87.1,27.4c0,0,12.1-6.7,21.1-8.5
									c-19.8,10.7-18.2,14.1-32.5,19.8c18.1,2,17.5,4.8,28.4,7.6c22.4,5.6,45.8,9.2,65.8-2.4c13.3-7.6,21-20.4,21.5-23.2
									c6,0,13.6-4.8,13.6-4.8S684.7,521.3,679.2,518.7z M628.7,554c-32.1-1.7-49.7-12.6-49.7-12.6s21.3-22.3,47.5-25.7
									c16.6-2.1,45.3,3.2,49.8,7.3C671,541.9,649.8,555.1,628.7,554z"/>
							</g>
						</g>
					</g>
					<g id="svga-group-facehighlight-single">
						
							<radialGradient id="SvgjsPath2769_00000145774881809314051950000017980306993383194755_" cx="264.7942" cy="871.6507" r="48.772" gradientTransform="matrix(3 0 0 -3 -262 3244)" gradientUnits="userSpaceOnUse">
							<stop  offset="0" style="stop-color:#FFF3F2;stop-opacity:0.5"/>
							<stop  offset="0.9" style="stop-color:#F2D3CE;stop-opacity:0"/>
						</radialGradient>
						<path id="SvgjsPath2769" style="fill:url(#SvgjsPath2769_00000145774881809314051950000017980306993383194755_);" d="
							M679.3,628.8c0.1,81.4-65.8,147.5-147.2,147.6c-81.4,0.1-147.5-65.8-147.6-147.2c-0.1-81.4,65.8-147.5,147.2-147.6
							C613.1,481.5,679.2,547.4,679.3,628.8z"/>
						
							<radialGradient id="SvgjsPath2773_00000083800416069151455180000010963101040879425975_" cx="264.7942" cy="939.957" r="43.8572" gradientTransform="matrix(3 0 0 -3 -262 3244)" gradientUnits="userSpaceOnUse">
							<stop  offset="0" style="stop-color:#FFF3F2;stop-opacity:0.5"/>
							<stop  offset="0.9" style="stop-color:#F2D3CE;stop-opacity:0"/>
						</radialGradient>
						<path id="SvgjsPath2773" style="fill:url(#SvgjsPath2773_00000083800416069151455180000010963101040879425975_);" d="
							M660.3,420.5c0,70.6-57.3,127.9-127.9,127.9s-127.9-57.3-127.9-127.9s57.3-127.9,127.9-127.9S660.3,349.8,660.3,420.5z"/>
					</g>
					<g id="svga-group-eyebrows-left-move" transform="matrix(1,0,0,1,0,0)">
						<g id="svga-group-eyebrows-left-rotate" transform="matrix(1,0,0,1,0,0)">
							<g id="svga-group-eyebrows-left" transform="matrix(1,0,0,1,0,0)">
								<path id="SvgjsPath5215" class="st32" d="M365.5,489.9c35.6-55.2,133.4,18.8,138.9-4.4c1.1-4.6-1.5-7.4-5.7-9.1
									C449,456.3,383.1,439.4,365.5,489.9z"/>
							</g>
						</g>
					</g>
					<g id="svga-group-eyebrows-right-move" transform="matrix(1,0,0,1,0,0)">
						<g id="svga-group-eyebrows-right-rotate" transform="matrix(1,0,0,1,0,0)">
							<g id="svga-group-eyebrows-right" transform="matrix(1,0,0,1,0,0)">
								<path id="SvgjsPath5216" class="st32" d="M699.2,489.9c-35.6-55.2-133.4,18.8-138.9-4.4c-1.1-4.6,1.5-7.4,5.7-9.1
									C615.8,456.3,681.7,439.4,699.2,489.9z"/>
							</g>
						</g>
					</g>
					<g id="svga-group-nose-single-move" transform="matrix(1,0,0,1,0.5,0)">
						<g id="svga-group-nose-single" transform="matrix(1,0,0,1,0,0)">
							<path id="SvgjsPath5233" class="st5" d="M524.1,554.2c0,0,0.2,29.1-1.7,34.8c-4.1,12.4-22.4,41.3-20.1,49.3
								c3.6,12.4,21.3,13.3,30.2,13.8c8.5,0.4,25.9-0.2,28.7-8.3c1.1-3.3-1.3-11.7-1.3-11.7s-7.9,8.1-26.6,7.2
								c-5.3-0.3-14-5.5-14.1-12.9c-0.1-10,6.6-21.5,7.8-31.4C528,587.6,524.1,554.2,524.1,554.2z"/>
							<path id="SvgjsPath5234" class="st14" d="M549.1,643.5c3.2,0,4.1,0.9,4.1,1.9c0,1.1-1,2.7-4.1,1.9c-3.4-0.8-9.3-0.5-9.3-0.5
								S545.9,643.5,549.1,643.5z M518.4,643.5c-3.2,0-4.1,0.9-4.1,1.9c0,1.1,1,2.6,4.1,1.9c3.4-0.7,9.3-0.5,9.3-0.5
								S521.6,643.5,518.4,643.5z M559.9,632.1c0,0,4.5,5.1,3.5,10.4c-0.9,5.2-9.9,7.5-9.9,7.5s6.2-4,7-8.8
								C560.9,639,559.9,632.1,559.9,632.1z M504.9,626.9c0,0-3.3,7.1-2.3,11.4c1.7,7.8,11.1,10.9,11.1,10.9s-5.9-5.3-7.9-10.1
								C503.5,634,504.9,626.9,504.9,626.9z"/>
							<path id="SvgjsPath5235" class="st4" d="M548.9,635.9c3.1-2.3,3.4-3.7,2.8-4.5c-0.6-0.9-2.5-1.4-5.1,1.4
								c-2.9,3.1-9.1,5.4-9.1,5.4S545.8,638.2,548.9,635.9z"/>
						</g>
					</g>
					<g id="svga-group-hair-front" transform="matrix(1,0,0,1,0,0)">
						<path id="SvgjsPath5221" class="st33" d="M671,733.8c60.3-204.5-10.4-317.2-18.6-352.6c-1.7-7.3-10.4-28.1-10.4-28.1
							c-32.4-17.8-50.8-21.8-89-21.8c-25.7,0-39.4,0.6-64.3,8.7c-26.2,26.1-102.1,119.4-133,189.2c15.3,58,24.9,249,17.7,265.8
							c-56.3,1.8-36.4-471.8-36.4-471.8c19.6,0,377.2-15.2,397.3-15.2C734.3,308.1,755.8,726.9,671,733.8z"/>
						<path id="SvgjsPath5222" class="st34" d="M639.9,1077.6c27.6-58,20.2-96.8,13.1-134.4c-5.3-28.1-10.9-57.1-1.5-94
							c-3.1-49.1,9.6-90.1,23.1-133.6c25.6-82.9,54.7-176.8-22.1-352.5l-0.1-0.2l-0.2-0.1c-32.4-17.8-69.6-27.3-107.8-27.3
							c-25.7,0-51.3,4.1-76.2,12.2C442,373.9,380.3,455.1,349.3,525c0.9,14.5,3.2,30,7,48.9c15.9,77.9,16.4,141.5,17,202.9
							c0.8,92,1.6,179,56.6,296.1c-6.8-5.9-13.4-11.6-19.7-17.1c-68.1-58.9-113.1-97.8-125.6-186.6l-1.5,0.1c0,0-1.2,33.8-1.7,48
							c-37.4-183.7-41.8-331.8-20.1-480.4c18.2-124.6,134.8-244.3,228.1-244.3c19.6,0,38.5,3.5,56.2,10.3l0.3,0.1l0.3-0.1
							c22.2-8.8,43.7-13.2,63.9-13.2c58.9,0,109.3,27.6,145.6,100.6c42.4,85.2,65,217.9,60.4,355c-4.5,133.5-33.5,248.9-77.8,309.7
							c2.4-12.7,3.2-18.3,4.6-32.6l-1.4-0.3c-27.3,73.4-63,112.8-97.6,150.9C642.7,1074.6,641.3,1076.1,639.9,1077.6z"/>
						<path id="SvgjsPath5223" class="st35" d="M349.7,530.3c1.1,13,3.2,27,6.7,43.6c15.9,77.9,16.4,141.5,17,202.9
							c0.8,92,1.6,179,56.6,296.1c-6.8-5.9-13.4-11.6-19.7-17.1c-35-30.3-63.8-55.3-85.3-84.4c-33.9-65.7-45.2-113.8-45.2-221.7
							c16.4,88.3,20.7,132.8,86.8,221.7C301,843.9,276,654.5,349.7,530.3z M808.3,661.1c-7.1,44.8-17.9,143.1-34.7,187
							c9.8-65.5,7.8-85.2,7.3-149.8c-14.6,84.1-34.2,184.2-73.1,248.5c14-57.6,26.5-105.7,26.5-177.6
							c-18.5,68.2-50.3,79.2-55.8,130.1c14.2-133.5,76.3-275.1,14-415.3c21.9,102.6,1,170.3-18,231.8
							c-13.4,43.4-26.1,84.5-23.1,133.6c-9.4,36.8-3.9,65.9,1.5,94c7.1,37.6,14.5,76.4-13.1,134.4c1.4-1.5,2.8-3.1,4.2-4.6
							c34.6-38.1,70.3-77.5,97.6-150.9l1.4,0.3c-1.4,14.3-2.2,19.9-4.6,32.6C781,896.6,802.2,787.9,808.3,661.1z M303.1,480.5
							c-8.9,19.8-23.8,227.6-12,272.5c0.2,0.6-0.2-0.6-1-3.3C272.2,691.8,292.8,499.4,303.1,480.5z M272.9,762.8
							c0.6,6.3,1.2,10.1,1.1,9.4c-0.5-1.9-7.1-161-5.5-162c0.4-0.1,0.3,0.1,0.4,0.1C265,611.3,268.4,715.5,272.9,762.8z M758.3,703
							c-5.4,61-19.3,129.6-7.4,69.4c21-102.1,26-193,0.7-293.4C762.1,529.3,769.1,568.9,758.3,703z"/>
						<path id="SvgjsPath5224" class="st36" d="M631.1,321.8c61.7,23.4,117,274.1,95,420.3c37.1-160.8,27.7-297-40.2-434.9
							c62,102,88.2,142.2,96.4,301.3c12.1-71.6,10.4-158.5-1.4-255.4c-7.3-22.9-15.7-43.9-25-62.7c-36.3-73-86.7-100.6-145.6-100.6
							c-20.2,0-41.7,4.5-63.9,13.2l-0.3,0.1l-0.3-0.1c-17.7-6.9-36.6-10.3-56.2-10.3c-46,0-99.1,30.2-142.5,75.2
							C285.4,361,266,475.8,269.2,584.9c3.7-87.7,47.5-175.4,102.3-241.2c-40.2,95-69.4,193.7-73.1,296
							c21.9-142.5,129.6-322.6,212-350.9c25.2-8.7,56.5-4.7,64.4,23.5c4.3,6.7,6.6,15.1,5.1,24c5.1-4.1,10.2-7.2,15.2-9.3
							C607.3,317.5,620.5,317.8,631.1,321.8z"/>
						<path id="SvgjsPath5225" class="st2" d="M579.9,336.4c3.7-21.9-18.3-42.4-36.5-42.4c-29.7,0-59,28.4-77.4,56.1
							c0.8-0.8,1.5-1.6,2.3-2.3c24.9-8.1,50.6-12.2,76.2-12.2c38.1,0,75.4,9.4,107.8,27.3l0.2,0.1l0.1,0.2c0.2,0.4,0.4,0.9,0.6,1.3
							c-1-12.8-15.2-28.1-22.2-33.1C612.7,320.4,597.7,319.6,579.9,336.4z"/>
						<path id="SvgjsPath5226" class="st34" d="M618.7,272.6c53.7,10.5,78.3,69.2,92.7,121.6C714,404.2,686.8,288.7,618.7,272.6z
							 M780.2,437.7c-9.6-79-42.2-159.5-111.4-198.7C765.7,299.6,781.6,448,780.2,437.7z M501.1,283.6c7-1.6-45.3,4.5-85.4,55
							c-26.2,31.8-49.6,80.4-59,99.3C385.6,378.7,437.2,298.6,501.1,283.6z M443.9,239.9c-58.3,18.8-94.6,61.1-114.4,113.5
							C368.6,260.9,460.4,234.8,443.9,239.9z M574,235.2c-15.2-31.9-45.3-47.7-90.7-42c44.5-3,74,16.7,85.8,42.8
							c-25-27.2-70.2,4.3-66.6,3.1c3.6-2.5,50.9-17.3,68.5,0.7c8,17,12.4,38,13.8,62c1.5,31.9,1.3-16.6-0.7-30.6
							c-1.7-12.6-4.7-23.9-9.1-33.8c14.6-18.6,41.5-20.1,64.6-10.6l0.1-0.3C617,215,583.8,214.8,574,235.2z"/>
						<path id="SvgjsPath5227" class="st37" d="M583.7,334.1c19.4-16.2,47.5-13.6,65.9,24.5l2.2,4.8c116.4,266.5-10.1,342.1-1,485.6
							c-22.3,87.3,38.5,128.2-13.9,232.9c35.9-39.8,75.9-80.5,105.4-159.6c-1.6,15.6-2.4,21.1-5.2,35.6
							C879.2,769.9,849.9,79.6,546,202.3c-98.2-46-253.9,51.5-285.3,234.5c-27.4,159.7-14.1,315,21.3,486.7
							c0.1-2.4,1.9-54.1,1.9-54.1c13.8,98.3,66.7,135,148.2,206.5c-93-195.6-34.7-304-75.1-502.1c-3.3-16-6-32.2-7.1-48.5
							c30.5-68.9,91.7-150,118.4-176.8l4.4-4.4c0.4-0.3,19.7-18.8,20.6-19.6c30-11.9,63.1-14.7,81.7,13.1
							c-11.1-29.2-47.7-29.4-75.8-18.4c30.9-27.2,68.3-37.6,81.1,14.9c0.4,1.5,0.3,4.4,0.3,4.4S582.3,335.3,583.7,334.1z
							 M806.8,647.3c-1.4,45.2-9.3,200.2-64.5,300.7c3.9-16.5,6.4-30.4,7.4-46.8c17.3-54.2,21.4-95.4,22-99
							c-20.3,100-56.8,187.7-126.5,268.9c49.5-109-9.7-131.5,6.1-216.8c3.5,40.3,15.7,79.3,28.3,117.1c1.8-36.1,9.3-80.4,26.6-112.2
							c-6.6,9.1-25.8,51.4-29,95.8c-52.9-184.7,19.5-182.7,29.9-397.1c9.5,77.3-0.4,103.9-0.4,103.9c20.9-70.1,2-118.5-3-157.6
							c-6.2-48.3-37.8-124.9-42.6-135.2c-17.8-37.2-44.6-60.3-77.2-38c-30.6-88.3-107.1-2.1-129.6,22.7
							c-32.5,35.7-82.3,102.7-106.8,161.9c0,0,0,0.1,0,0.1c-17.7,42.8-22.3,76.2-26.8,105.4c8.4-41.6,16.8-66.6,27.2-90.5
							c0.7,12.1,2.1,24.2,3.9,36.1c32.9,210.7-24.9,303,73.3,499.9C299.1,949.3,284.8,914.2,279.9,771.9
							c-0.9,91.3,3.4,38.4-0.5,112.2c-21.1-142.8-39-246.9-9.1-433.2c33.9-211,191.1-282.2,275.7-246.4
							c110.7-45.1,179,21.7,223.7,128.1c10.1,24.1,38.3,136.3,20.5,228.1c0,0,8-23.1,13.4-68.3C808.6,542.2,808.3,596.4,806.8,647.3
							z"/>
					</g>
					<g id="svga-group-glasses-single-move" transform="matrix(1,0,0,1,0,0)">
						<g id="svga-group-glasses-single" transform="matrix(1,0,0,1,0,0)">
							<path id="SvgjsPath5217" class="st38" d="M532.4,282.1L532.4,282.1L532.4,282.1L532.4,282.1z"/>
						</g>
					</g>
				</g>
			</g>
		</g>
	</g>
</g>
</svg>
